<?xml version="1.0" encoding="UTF-8" standalone="no"?>
<svg
   version="1.1"
   width="59.999802pt"
   height="23.9998pt"
   id="svg827"
   viewBox="0 0 59.999802 23.9998"
   sodipodi:docname="logo.svg"
   inkscape:version="1.2.2 (b0a8486, 2022-12-01)"
   xmlns:inkscape="http://www.inkscape.org/namespaces/inkscape"
   xmlns:sodipodi="http://sodipodi.sourceforge.net/DTD/sodipodi-0.dtd"
   xmlns:xlink="http://www.w3.org/1999/xlink"
   xmlns="http://www.w3.org/2000/svg"
   xmlns:svg="http://www.w3.org/2000/svg">
  <defs
     id="defs831">
    <defs
       id="defs737">
      <linearGradient
         id="grad1">
        <stop
           offset="0%"
           stop-color="#bd7052"
           stop-opacity="1.0000"
           id="stop731" />
        <stop
           offset="100%"
           stop-color="#8a3513"
           stop-opacity="1.0000"
           id="stop733" />
      </linearGradient>
      <linearGradient
         xlink:href="#grad1"
         id="grad2"
         x1="44.330105"
         y1="-0.036527369"
         x2="44.330105"
         y2="17.241053"
         gradientTransform="matrix(0.51173718,0,0,0.70767558,16.292262,0.49320563)"
         gradientUnits="userSpaceOnUse" />
    </defs>
    <defs
       id="defs747">
      <linearGradient
         id="grad3">
        <stop
           offset="0%"
           stop-color="#bd7052"
           stop-opacity="1.0000"
           id="stop741" />
        <stop
           offset="100%"
           stop-color="#8a3513"
           stop-opacity="1.0000"
           id="stop743" />
      </linearGradient>
      <linearGradient
         xlink:href="#grad3"
         id="grad4"
         x1="38.395252"
         y1="0.003544535"
         x2="38.395252"
         y2="18.648506"
         gradientTransform="matrix(0.51104726,0,0,0.84318819,26.562622,4.9844206)"
         gradientUnits="userSpaceOnUse" />
    </defs>
  </defs>
  <sodipodi:namedview
     id="namedview829"
     pagecolor="#ffffff"
     bordercolor="#000000"
     borderopacity="0.25"
     inkscape:showpageshadow="2"
     inkscape:pageopacity="0.0"
     inkscape:pagecheckerboard="0"
     inkscape:deskcolor="#d1d1d1"
     showgrid="false"
     inkscape:zoom="10.439074"
     inkscape:cx="40.041868"
     inkscape:cy="21.697328"
     inkscape:window-width="1440"
     inkscape:window-height="789"
     inkscape:window-x="1698"
     inkscape:window-y="25"
     inkscape:window-maximized="0"
     inkscape:current-layer="Layer1000"
     inkscape:document-units="pt" />
  <g
     id="Layer1000"
     transform="translate(-0.71185882)">
    <g
       id="Layer1005"
       transform="translate(12.134243,0.04199685)">
      <g
         id="Layer1006">
        <path
           d="M 5.1404,17.7192 C 5.1406,17.5122 5.0816,17.3376 4.9632,17.1982 4.8447,17.0588 4.6309,16.9194 4.3214,16.7766 l -10e-5,-10e-5 C 4.3059,16.7695 4.2846,16.7595 4.2577,16.7468 3.9067,16.5857 3.7391,16.4137 3.7404,16.2403 c 2e-4,-0.1152 0.0378,-0.2033 0.1139,-0.271 0.0759,-0.0671 0.1788,-0.1014 0.312,-0.1015 0.0935,0 0.1752,0.0219 0.2467,0.0652 0.0711,0.0434 0.1379,0.1128 0.1993,0.2092 L 4.6217,16.1571 5.0492,15.9363 5.0434,15.9204 C 4.9824,15.7499 4.8715,15.6184 4.713,15.5275 4.5544,15.4368 4.3584,15.3919 4.1258,15.3919 3.8424,15.3918 3.6105,15.472 3.434,15.6335 c -0.1767,0.1612 -0.2656,0.3737 -0.2654,0.6322 -2e-4,0.2 0.0586,0.371 0.1762,0.5102 0.118,0.1398 0.3487,0.2916 0.6935,0.46 h 3e-4 l 5e-4,3e-4 c 0.0221,0.0098 0.0547,0.0253 0.0971,0.0463 0.3024,0.1431 0.4459,0.302 0.4452,0.4728 -1e-4,0.1367 -0.0424,0.2425 -0.127,0.3224 -0.0848,0.08 -0.1985,0.1204 -0.3457,0.1206 -0.1561,0 -0.2824,-0.0359 -0.3807,-0.1061 -0.0983,-0.0705 -0.1659,-0.172 -0.2036,-0.3079 l -0.0061,-0.0221 -0.44,0.2037 0.0035,0.0155 c 0.0532,0.231 0.1673,0.4107 0.3411,0.5356 0.1737,0.125 0.3959,0.1869 0.6645,0.1869 h 8e-4 c 0.3199,0 0.5768,-0.0885 0.7669,-0.2662 0.1904,-0.1778 0.2856,-0.4191 0.2853,-0.7185 z"
           style="fill:#00407e;fill-rule:evenodd"
           id="path784" />
        <path
           d="M 11.2745,15.4521 H 10.7609 V 17.607 C 10.5009,17.33 8.9546,15.7546 8.858,15.6539 8.6682,15.4565 8.4586,15.4507 8.4355,15.4508 H 8.4325 L 8.414,15.4521 v 3.1919 h 0.5114 v -2.1608 c 0.1172,0.1259 0.4945,0.5118 0.8812,0.9066 0.4505,0.4597 0.9104,0.9275 0.9695,0.9904 0.2309,0.2466 0.4209,0.2658 0.4691,0.2658 h 10e-4 c 0.0063,0 0.0097,-4e-4 0.0104,-4e-4 l 0.0181,-0.0016 z"
           style="fill:#00407e;fill-rule:evenodd"
           id="path786" />
        <path
           d="m 19.4171,15.4521 h -0.5137 v 2.1552 c -0.2601,-0.277 -1.8065,-1.8525 -1.9032,-1.9534 -0.1896,-0.1974 -0.3993,-0.2032 -0.4226,-0.2031 h -0.003 l -0.0183,0.0013 v 3.1924 h 0.5114 v -2.1609 c 0.1172,0.1258 0.4946,0.5116 0.8812,0.9065 0.4508,0.4598 0.9107,0.9279 0.9696,0.9906 0.231,0.2466 0.4212,0.2657 0.4693,0.2657 h 0.001 c 0.0063,0 0.0099,-2e-4 0.0105,-2e-4 l 0.0181,-0.0016 z"
           style="fill:#00407e;fill-rule:evenodd"
           id="path788" />
        <path
           d="m 11.58,15.4521 v 0.4918 h 0.8374 v 2.7001 h 0.5515 v -2.7001 h 0.833 v -0.4918 z"
           style="fill:#00407e;fill-rule:evenodd"
           id="path790" />
        <path
           d="m 6.7849,15.4594 -4e-4,-3e-4 C 6.7666,15.42 6.7272,15.3928 6.6814,15.3928 c -0.0013,0 -0.0025,10e-5 -0.0038,10e-5 -0.0013,0 -0.0026,-10e-5 -0.0039,-10e-5 -0.0457,0 -0.0851,0.0272 -0.103,0.0663 l -4e-4,3e-4 -1.4835,3.1846 H 5.6801 L 6.053,17.8169 h 1.2492 l 0.373,0.8271 h 0.5931 z m -0.5216,1.8829 v 0 l 0.4154,-1.0175 0.4196,1.0175 z"
           style="fill:#00407e;fill-rule:evenodd"
           id="path792" />
        <path
           d="m 14.9149,15.4596 -3e-4,-3e-4 c -0.018,-0.0391 -0.0574,-0.0664 -0.1031,-0.0664 -0.0013,0 -0.0026,1e-4 -0.0039,1e-4 -0.0013,0 -0.0025,-1e-4 -0.0038,-1e-4 -0.0458,0 -0.0852,0.0273 -0.1032,0.0664 l -2e-4,3e-4 -1.4833,3.1842 h 0.5931 l 0.3729,-0.827 h 1.2491 l 0.3728,0.827 h 0.5931 z m -0.5215,1.8825 v 0 l 0.4154,-1.0173 0.4195,1.0173 z"
           style="fill:#00407e;fill-rule:evenodd"
           id="path794" />
        <path
           d="m 21.3945,15.4596 -2e-4,-3e-4 c -0.0179,-0.0391 -0.0573,-0.0664 -0.103,-0.0664 -0.0013,0 -0.0027,1e-4 -0.0039,1e-4 -0.0013,0 -0.0026,-1e-4 -0.0038,-1e-4 -0.0458,0 -0.0854,0.0273 -0.1031,0.0664 l -3e-4,3e-4 -1.4834,3.1844 h 0.5931 l 0.373,-0.8271 h 1.2491 l 0.3729,0.8271 h 0.5931 z m -0.5214,1.8827 v 0 l 0.4154,-1.0173 0.4195,1.0173 z"
           style="fill:#00407e;fill-rule:evenodd"
           id="path796" />
        <path
           d="m 5.1549,19.1901 v 0.4136 h 0.7039 v 2.271 h 0.4639 v -2.271 H 7.023 v -0.4136 z"
           style="fill:#00407e;fill-rule:evenodd"
           id="path798" />
        <path
           d="m 15.1869,19.1897 h -0.4771 v 2.6851 h 1.6777 v -0.4103 h -1.2006 z"
           style="fill:#00407e;fill-rule:evenodd"
           id="path800" />
        <path
           d="m 13.9002,21.8747 h 0.4665 v -2.6846 h -0.4665 z"
           style="fill:#00407e;fill-rule:evenodd"
           id="path802" />
        <path
           d="m 11.507,19.1899 h -0.575 c 0,0 -0.4949,0.8618 -0.573,1.0289 L 9.8228,19.1899 H 9.2695 l 0.7743,1.3264 -0.8667,1.3585 H 9.788 l 0.5678,-1.0397 c 0.0822,0.1554 0.6065,1.0397 0.6065,1.0397 h 0.6153 l -0.8883,-1.3744 z"
           style="fill:#00407e;fill-rule:evenodd"
           id="path804" />
        <path
           d="M 7.6972,20.6837 H 8.7986 V 20.2854 H 7.6972 v -0.693 H 8.8635 V 19.1901 H 7.2259 v 2.6847 H 8.9285 V 21.4724 H 7.6972 Z"
           style="fill:#00407e;fill-rule:evenodd"
           id="path806" />
        <path
           d="m 17.1656,20.6838 h 1.1011 v -0.3982 h -1.1011 v -0.6929 h 1.1661 v -0.4023 h -1.6373 v 2.6844 h 1.7024 v -0.4023 h -1.2312 z"
           style="fill:#00407e;fill-rule:evenodd"
           id="path808" />
        <path
           d="m 20.3878,21.1005 c 2e-4,-0.1749 -0.0497,-0.3223 -0.1497,-0.4399 -0.1001,-0.118 -0.2808,-0.2358 -0.5422,-0.3564 l -2e-4,-2e-4 c -0.0129,-0.0058 -0.0308,-0.0141 -0.0536,-0.0249 -0.2965,-0.1361 -0.438,-0.2813 -0.437,-0.428 10e-5,-0.0971 0.0319,-0.1718 0.0963,-0.229 0.0641,-0.0566 0.151,-0.0856 0.2636,-0.0857 0.0788,0 0.148,0.0185 0.2082,0.0552 0.0602,0.0367 0.1165,0.0952 0.1683,0.1765 l 0.008,0.0128 0.3612,-0.1864 -0.0048,-0.0135 c -0.0518,-0.1439 -0.1453,-0.2553 -0.2792,-0.332 -0.1339,-0.0767 -0.2996,-0.1146 -0.496,-0.1146 -0.2394,-10e-5 -0.4354,0.0676 -0.5844,0.2042 -0.1494,0.1362 -0.2244,0.3157 -0.2244,0.5342 0,0.1688 0.0496,0.3133 0.149,0.431 0.0998,0.1178 0.2945,0.2463 0.5859,0.3885 h 10e-5 l 6e-4,2e-4 c 0.0187,0.0082 0.0462,0.0212 0.0821,0.0393 0.2554,0.1207 0.3766,0.2549 0.376,0.3991 -2e-4,0.1156 -0.0359,0.205 -0.1073,0.2725 -0.0716,0.0675 -0.1677,0.1017 -0.2921,0.1019 -0.1319,0 -0.2385,-0.0303 -0.3215,-0.0898 -0.0832,-0.0595 -0.1401,-0.1451 -0.172,-0.2601 l -0.0053,-0.0185 -0.3716,0.172 0.0029,0.0132 c 0.045,0.195 0.1413,0.3469 0.2882,0.4523 0.1467,0.1057 0.3345,0.1578 0.5612,0.1578 h 9e-4 c 0.2702,0 0.4872,-0.0745 0.6478,-0.2247 0.1608,-0.1502 0.2412,-0.354 0.241,-0.607 z"
           style="fill:#00407e;fill-rule:evenodd"
           id="path810" />
        <path
           d="m 11.7344,19.1901 v 0.4134 h 0.704 v 2.2712 h 0.4637 v -2.2712 h 0.7001 v -0.4134 z"
           style="fill:#00407e;fill-rule:evenodd"
           id="path812" />
        <path
           d="m 8.0249,4.5754 c 0,0 -0.1659,-0.247 0.1673,-0.4774 0.3332,-0.2305 2.0377,-1.744 6.9846,-1.3431 l 1.7046,-2.6258 c 0,0 -5.3954,-0.6718 -9.3684,1.7037 0,0 -0.6152,0.3709 -0.3973,0.8821 0.2179,0.5111 0.9092,1.8605 0.9092,1.8605 z"
           style="fill:#00407e;fill-rule:evenodd"
           id="path814" />
        <path
           d="m 8.0022,4.5311 c 0.0117,0.0282 0.0227,0.0443 0.0227,0.0443 0,0 -0.0082,-0.0123 -0.0174,-0.034 C 8.0058,4.5382 8.0041,4.5347 8.0022,4.5311 Z m 10.8787,0.7863 v 0 L 18.85,5.359 C 18.8637,5.3416 18.8738,5.3276 18.8809,5.3174 Z M 13.8061,3.6799 v 0 C 12.1636,3.4079 10.9249,3.1073 10.5619,3.0159 9.0521,3.3885 8.3873,3.9631 8.1922,4.098 7.9335,4.277 7.9757,4.4659 8.0075,4.5414 c 0.0112,0.0222 0.0174,0.034 0.0174,0.034 0.8865,0.8958 4.9846,1.3233 6.0895,1.5879 0.9349,0.2239 1.1071,0.5747 1.138,0.6773 C 17.4487,6.5207 18.4121,5.8018 18.882,5.3158 18.8898,5.3042 18.8934,5.2981 18.8934,5.2981 19.176,4.6671 15.7717,4.0055 13.8061,3.6799 Z"
           style="fill:#002b59;fill-rule:evenodd"
           id="path816" />
        <path
           d="m 6.5179,5.5212 c 0,0 2.1815,1.4833 6.2231,1.4833 4.0416,0 5.5212,-1.0477 6.1413,-1.6891 l -5.9577,8.0237 z"
           style="fill:#00407e;fill-rule:evenodd"
           id="path818" />
        <path
           d="M 17.327,0.626 V 0.6242 c 0.0436,-0.0148 0.0782,-0.0513 0.0782,-0.1062 0,-0.032 -0.0116,-0.0602 -0.0326,-0.0787 -0.0259,-0.0233 -0.0629,-0.0338 -0.1202,-0.0338 -0.0369,0 -0.0758,0.003 -0.1028,0.0086 v 0.4095 h 0.0535 V 0.6437 h 0.0505 c 0.0488,0.002 0.071,0.0235 0.0832,0.0808 0.0117,0.0517 0.021,0.0869 0.0277,0.0991 H 17.42 C 17.4115,0.8075 17.4017,0.7676 17.3879,0.7096 17.3782,0.6666 17.3591,0.637 17.327,0.626 Z M 17.2581,0.6031 v 0 h -0.055 V 0.4516 c 0.0087,-0.0024 0.0271,-0.0049 0.0531,-0.0049 0.0565,6e-4 0.0955,0.0239 0.0955,0.0776 0,0.0473 -0.0364,0.0788 -0.0936,0.0788 z m 0.0161,-0.3434 v 0 c -0.2061,0 -0.3733,0.1671 -0.3733,0.3732 0,0.206 0.1672,0.3732 0.3733,0.3732 0.2063,0 0.3736,-0.1672 0.3736,-0.3732 0,-0.2061 -0.1673,-0.3732 -0.3736,-0.3732 z m 0,0.6771 v 0 c -0.168,0 -0.3041,-0.136 -0.3041,-0.3039 0,-0.1679 0.1361,-0.3041 0.3041,-0.3041 0.1679,0 0.3042,0.1362 0.3042,0.3041 0,0.1679 -0.1363,0.3039 -0.3042,0.3039 z"
           style="fill:#00407e;fill-rule:evenodd"
           id="path820" />
      </g>
      <path
         d="m 2.2083,24.0334 v -1.1035 h 0.401 c 0.0902,0 0.1692,0.0145 0.2371,0.0435 0.0678,0.029 0.1246,0.0684 0.1702,0.1181 0.0456,0.0497 0.0798,0.108 0.1025,0.1749 0.0228,0.0668 0.0342,0.138 0.0342,0.2137 0,0.0839 -0.0127,0.1598 -0.038,0.2277 -0.0254,0.0679 -0.062,0.1259 -0.1096,0.1741 -0.0477,0.0482 -0.1049,0.0855 -0.1718,0.1119 -0.0668,0.0264 -0.1417,0.0396 -0.2246,0.0396 z m 0.729,-0.5533 C 2.9373,23.4272 2.93,23.3785 2.9155,23.334 2.901,23.2894 2.8798,23.2511 2.8518,23.219 2.8238,23.1868 2.7894,23.162 2.7484,23.1444 2.7075,23.1267 2.6611,23.1179 2.6093,23.1179 H 2.4228 v 0.7274 h 0.1865 c 0.0529,0 0.0998,-0.0093 0.1407,-0.0279 0.0409,-0.0187 0.0751,-0.0443 0.1026,-0.077 C 2.88,23.7078 2.901,23.6692 2.9155,23.6246 2.93,23.5801 2.9373,23.5319 2.9373,23.4801 Z m 1.1502,0.3652 v 0.1881 H 3.3212 v -1.1035 h 0.7523 v 0.188 H 3.5357 v 0.2658 h 0.4647 v 0.1741 H 3.5357 v 0.2875 z m 0.3823,-0.5191 v 0.7072 H 4.2553 v -1.1035 h 0.1664 l 0.575,0.7243 v -0.7228 h 0.2145 v 1.102 h -0.174 z m 0.9715,0.7072 v -1.1035 h 0.2145 v 1.1035 z m 1.3445,0 v -0.7305 l -0.2845,0.544 H 6.3848 l -0.2845,-0.544 v 0.7305 H 5.8858 v -1.1035 h 0.2301 l 0.3264,0.6279 0.3295,-0.6279 h 0.2285 v 1.1035 z m 0.8175,0 v -1.1035 h 0.2145 v 0.9154 h 0.5627 v 0.1881 z m 0.9077,0 v -1.1035 h 0.2145 v 1.1035 z m 0.1601,-1.1968 -0.1336,-0.0404 0.0839,-0.185 h 0.1943 z m 0.2845,1.1968 v -1.1035 h 0.401 c 0.0901,0 0.1692,0.0145 0.237,0.0435 0.0679,0.029 0.1246,0.0684 0.1702,0.1181 0.0456,0.0497 0.0798,0.108 0.1026,0.1749 0.0228,0.0668 0.0342,0.138 0.0342,0.2137 0,0.0839 -0.0127,0.1598 -0.0381,0.2277 -0.0254,0.0679 -0.0619,0.1259 -0.1096,0.1741 -0.0476,0.0482 -0.1049,0.0855 -0.1717,0.1119 -0.0668,0.0264 -0.1417,0.0396 -0.2246,0.0396 z m 0.729,-0.5533 C 9.6846,23.4272 9.6773,23.3785 9.6628,23.334 9.6483,23.2894 9.627,23.2511 9.5991,23.219 9.5711,23.1868 9.5366,23.162 9.4957,23.1444 9.4548,23.1267 9.4084,23.1179 9.3566,23.1179 H 9.1701 v 0.7274 h 0.1865 c 0.0528,0 0.0997,-0.0093 0.1407,-0.0279 0.0409,-0.0187 0.0751,-0.0443 0.1025,-0.077 0.0275,-0.0326 0.0485,-0.0712 0.063,-0.1158 0.0145,-0.0445 0.0218,-0.0927 0.0218,-0.1445 z m 1.1501,0.3652 v 0.1881 h -0.7662 v -1.1035 h 0.7523 v 0.188 H 10.283 v 0.2658 h 0.4647 v 0.1741 H 10.283 v 0.2875 z m 0.1679,0.1881 v -1.1035 h 0.4881 c 0.0507,0 0.0976,0.0106 0.1406,0.0318 0.043,0.0213 0.0801,0.0492 0.1112,0.084 0.031,0.0347 0.0554,0.074 0.073,0.1181 0.0176,0.044 0.0264,0.0883 0.0264,0.1329 0,0.0715 -0.0178,0.1365 -0.0536,0.195 -0.0357,0.0586 -0.0842,0.1008 -0.1453,0.1267 l 0.2518,0.415 h -0.2409 l -0.2254,-0.3699 h -0.2114 v 0.3699 z m 0.2145,-0.558 h 0.2689 c 0.0197,0 0.0381,-0.0046 0.0552,-0.014 0.0171,-0.0093 0.0318,-0.022 0.0443,-0.038 0.0124,-0.0161 0.0222,-0.035 0.0295,-0.0568 0.0073,-0.0217 0.0109,-0.0451 0.0109,-0.0699 0,-0.0259 -0.0042,-0.0498 -0.0125,-0.0715 C 11.6052,23.2034 11.594,23.1845 11.58,23.1685 11.566,23.1524 11.55,23.14 11.5318,23.1311 11.5137,23.1223 11.4953,23.1179 11.4767,23.1179 h -0.2596 z m 1.9584,0.3699 v 0.1881 h -0.7662 v -1.1035 h 0.7522 v 0.188 h -0.5377 v 0.2658 h 0.4647 v 0.1741 h -0.4647 v 0.2875 z m 1.0678,0.1881 v -0.7305 l -0.2844,0.544 h -0.1166 l -0.2844,-0.544 v 0.7305 h -0.2145 v -1.1035 h 0.23 l 0.3264,0.6279 0.3295,-0.6279 h 0.2285 v 1.1035 z m 1.5683,-0.0715 c -0.0404,0.0249 -0.0839,0.0443 -0.1305,0.0583 -0.0467,0.014 -0.0964,0.021 -0.1492,0.021 -0.0809,0 -0.1542,-0.0161 -0.22,-0.0482 -0.0658,-0.0321 -0.1223,-0.0741 -0.1694,-0.1259 -0.0472,-0.0518 -0.0837,-0.1114 -0.1096,-0.1787 -0.0259,-0.0674 -0.0388,-0.1363 -0.0388,-0.2068 0,-0.0735 0.0137,-0.144 0.0411,-0.2113 0.0275,-0.0674 0.0653,-0.127 0.1135,-0.1788 0.0482,-0.0518 0.1054,-0.093 0.1718,-0.1236 0.0663,-0.0305 0.1383,-0.0458 0.216,-0.0458 0.0798,0 0.1526,0.0163 0.2184,0.049 0.0658,0.0326 0.122,0.0753 0.1686,0.1282 0.0467,0.0528 0.0829,0.1129 0.1088,0.1803 0.0259,0.0673 0.0389,0.1357 0.0389,0.2052 0,0.0714 -0.0127,0.1398 -0.0381,0.2051 -0.0254,0.0653 -0.0609,0.1233 -0.1065,0.1741 l 0.1508,0.1694 h -0.2021 z m -0.2782,-0.1103 c 0.028,0 0.0541,-0.0034 0.0785,-0.0101 0.0244,-0.0068 0.0469,-0.0158 0.0676,-0.0272 l -0.1679,-0.1897 h 0.2021 l 0.0762,0.0855 c 0.0207,-0.0331 0.0368,-0.0694 0.0482,-0.1088 0.0114,-0.0394 0.0171,-0.0792 0.0171,-0.1197 0,-0.0476 -0.0076,-0.0937 -0.0226,-0.1383 -0.015,-0.0446 -0.0363,-0.0839 -0.0637,-0.1181 -0.0275,-0.0342 -0.0612,-0.0617 -0.1011,-0.0824 -0.0398,-0.0207 -0.0847,-0.0311 -0.1344,-0.0311 -0.0518,0 -0.0979,0.0106 -0.1383,0.0319 -0.0404,0.0212 -0.0741,0.0495 -0.1011,0.0847 -0.0269,0.0352 -0.0474,0.0749 -0.0614,0.1189 -0.0139,0.044 -0.0209,0.0888 -0.0209,0.1344 0,0.0477 0.0072,0.0938 0.0217,0.1384 0.0145,0.0445 0.0355,0.0839 0.063,0.1181 0.0274,0.0342 0.0611,0.0617 0.101,0.0824 0.0399,0.0207 0.0852,0.0311 0.136,0.0311 z m 1.1673,0 c 0.0508,0 0.0935,-0.0104 0.1282,-0.0311 0.0347,-0.0207 0.0627,-0.0477 0.084,-0.0808 0.0212,-0.0332 0.0362,-0.0713 0.045,-0.1143 0.0088,-0.043 0.0132,-0.0873 0.0132,-0.1329 v -0.5626 h 0.213 v 0.5626 c 0,0.0757 -0.0091,0.1466 -0.0272,0.213 -0.0182,0.0663 -0.0466,0.1243 -0.0855,0.174 -0.0389,0.0498 -0.0889,0.0892 -0.15,0.1182 -0.0611,0.029 -0.1342,0.0435 -0.2191,0.0435 -0.0881,0 -0.163,-0.0153 -0.2246,-0.0459 -0.0617,-0.0305 -0.1117,-0.0709 -0.15,-0.1212 -0.0384,-0.0503 -0.0661,-0.1085 -0.0832,-0.1749 -0.0171,-0.0663 -0.0256,-0.1352 -0.0256,-0.2067 v -0.5626 h 0.2145 v 0.5626 c 0,0.0466 0.0044,0.0915 0.0132,0.1345 0.0088,0.043 0.0238,0.081 0.045,0.1142 0.0213,0.0332 0.049,0.0599 0.0832,0.0801 0.0342,0.0202 0.0762,0.0303 0.1259,0.0303 z m 0.9668,-0.9217 h 0.1896 l 0.4197,1.1035 H 18.0561 L 17.9535,23.7583 H 17.568 l -0.101,0.2751 h -0.2207 z m 0.2471,0.6776 -0.1523,-0.4336 -0.1586,0.4336 z m 0.4834,0.4259 v -1.1035 h 0.2145 v 0.9154 h 0.5627 v 0.1881 z m 0.9077,0 v -1.1035 h 0.2145 v 1.1035 z m 0.4446,0 v -1.1035 h 0.401 c 0.0901,0 0.1691,0.0145 0.237,0.0435 0.0679,0.029 0.1246,0.0684 0.1702,0.1181 0.0456,0.0497 0.0798,0.108 0.1026,0.1749 0.0228,0.0668 0.0342,0.138 0.0342,0.2137 0,0.0839 -0.0127,0.1598 -0.0381,0.2277 -0.0254,0.0679 -0.0619,0.1259 -0.1096,0.1741 -0.0476,0.0482 -0.1049,0.0855 -0.1717,0.1119 -0.0669,0.0264 -0.1417,0.0396 -0.2246,0.0396 z m 0.7289,-0.5533 c 0,-0.0529 -0.0072,-0.1016 -0.0217,-0.1461 -0.0145,-0.0446 -0.0358,-0.0829 -0.0637,-0.115 -0.028,-0.0322 -0.0625,-0.057 -0.1034,-0.0746 -0.0409,-0.0177 -0.0873,-0.0265 -0.1391,-0.0265 h -0.1865 v 0.7274 h 0.1865 c 0.0528,0 0.0997,-0.0093 0.1406,-0.0279 0.041,-0.0187 0.0752,-0.0443 0.1026,-0.077 0.0275,-0.0326 0.0485,-0.0712 0.063,-0.1158 0.0145,-0.0445 0.0217,-0.0927 0.0217,-0.1445 z m 0.6591,-0.5502 h 0.1896 l 0.4197,1.1035 h -0.2208 l -0.1025,-0.2751 h -0.3855 l -0.1011,0.2751 H 20.717 Z m 0.2471,0.6776 -0.1523,-0.4336 -0.1586,0.4336 z m 0.4834,0.4259 v -1.1035 h 0.401 c 0.0902,0 0.1692,0.0145 0.237,0.0435 0.0679,0.029 0.1246,0.0684 0.1702,0.1181 0.0456,0.0497 0.0798,0.108 0.1026,0.1749 0.0228,0.0668 0.0342,0.138 0.0342,0.2137 0,0.0839 -0.0127,0.1598 -0.0381,0.2277 -0.0254,0.0679 -0.0619,0.1259 -0.1095,0.1741 -0.0477,0.0482 -0.105,0.0855 -0.1718,0.1119 -0.0668,0.0264 -0.1417,0.0396 -0.2246,0.0396 z m 0.729,-0.5533 c 0,-0.0529 -0.0073,-0.1016 -0.0218,-0.1461 -0.0145,-0.0446 -0.0358,-0.0829 -0.0637,-0.115 -0.028,-0.0322 -0.0625,-0.057 -0.1034,-0.0746 -0.0409,-0.0177 -0.0873,-0.0265 -0.1391,-0.0265 h -0.1865 v 0.7274 h 0.1865 c 0.0528,0 0.0997,-0.0093 0.1407,-0.0279 0.0409,-0.0187 0.0751,-0.0443 0.1026,-0.077 0.0274,-0.0326 0.0484,-0.0712 0.0629,-0.1158 0.0145,-0.0445 0.0218,-0.0927 0.0218,-0.1445 z m 1.1502,0.3652 v 0.1881 h -0.7663 v -1.1035 h 0.7523 v 0.188 h -0.5378 v 0.2658 h 0.4647 v 0.1741 h -0.4647 v 0.2875 z"
         style="fill:#00407e;fill-rule:evenodd"
         id="path823" />
    </g>
  </g>
</svg>
